<svg width="275" height="220" viewBox="0 0 275 220" fill="none" xmlns="http://www.w3.org/2000/svg">
<g clip-path="url(#clip0_1_1977)">
<path opacity="0.8" d="M46.4291 213.887C36.4486 212.235 27.0532 208.039 19.1362 201.697C9.82475 194.31 -0.311554 184.355 4.99296e-05 172C0.329984 158.905 5.18735 146.291 10.448 134.49C17.5599 118.551 27.4579 101.744 24.8367 83.9959C22.2156 66.2475 25.7349 45.0084 35.0097 29.9748C49.6734 6.29783 75.335 0.554043 100.997 -1.96397e-05C117.951 -0.350926 135.401 0.664858 150.853 7.70146C167.093 15.089 180.181 28.7559 196.677 35.0906C207.675 39.2646 219.699 40.0957 230.459 44.7867C244.005 50.7152 254.452 62.4613 261.216 75.685C267.98 88.9086 271.426 103.591 274.047 118.163C278.336 142.8 268.145 173.569 253.463 193.737C243.675 207.146 227.288 222.678 210.443 219.427C124.678 203.027 141.157 229.382 46.4291 213.887Z" fill="#CBECFF" fill-opacity="0.1"/>
<path d="M162.218 39.2277L219.681 46.9291L179.301 51.2508L162.218 39.2277Z" fill="#B2BBC5"/>
<path d="M179.301 51.2507L182.362 69.424L187.256 54.335L219.681 46.929L179.301 51.2507Z" fill="#B2BBC5"/>
<path d="M179.301 51.2507L182.362 69.424L187.256 54.335L219.681 46.929L179.301 51.2507Z" fill="url(#paint0_linear_1_1977)"/>
<path d="M199.482 70.9754L187.256 54.335L219.681 46.929L199.482 70.9754Z" fill="#B2BBC5"/>
<path d="M182.362 69.424L194.111 63.6433L187.256 54.335L182.362 69.424Z" fill="white"/>
<path opacity="0.59" d="M182.362 69.424L194.111 63.6433L187.256 54.335L182.362 69.424Z" fill="#B2BBC5"/>
<path d="M172.666 71.1786L172.134 68.7592C172.754 68.6361 173.366 68.4758 173.967 68.279L174.81 70.5876C174.109 70.8313 173.393 71.0288 172.666 71.1786Z" fill="#EA3C47"/>
<path d="M98.2105 183.783C96.8724 183.339 95.571 182.896 94.3063 182.416L95.1494 180.107C96.3775 180.569 97.6606 181.012 98.962 181.437L98.2105 183.783ZM86.6628 179.184C85.3797 178.556 84.1333 177.91 82.9969 177.337L84.1516 175.102C85.2697 175.73 86.4612 176.358 87.7076 176.949L86.6628 179.184ZM185.643 177.67H181.519V175.195L185.57 175.306L185.643 177.67ZM193.891 177.522L193.763 175.065C195.138 175.065 196.494 174.899 197.796 174.77L197.997 177.226C196.714 177.356 195.339 177.448 193.928 177.522H193.891ZM173.325 176.949L169.238 176.524L169.513 174.068C170.869 174.234 172.207 174.364 173.545 174.493L173.325 176.949ZM206.319 176.063L205.897 173.643C207.235 173.403 208.573 173.126 209.838 172.831L210.388 175.232C209.013 175.619 207.639 175.897 206.246 176.137L206.319 176.063ZM218.362 172.812L217.5 170.522C218.783 170.023 220.011 169.506 221.166 168.952L222.229 171.169C220.928 171.833 219.626 172.387 218.288 172.886L218.362 172.812ZM76.1049 172.48C75.0074 171.586 73.9667 170.624 72.9889 169.599L74.8218 167.9C75.731 168.852 76.6982 169.746 77.7179 170.578L76.1049 172.48ZM229.414 166.754L227.911 164.797C228.553 164.298 229.176 163.763 229.744 163.208L230.789 162.174L232.494 163.929L231.357 165.018C230.789 165.683 230.038 166.274 229.341 166.828L229.414 166.754ZM68.1132 162.544C67.4893 161.243 66.998 159.881 66.6468 158.48L69.0296 157.945C69.3023 159.218 69.7141 160.457 70.2577 161.639L68.1132 162.544ZM113.754 161.953L109.813 160.327L110.803 158.074C112.031 158.61 113.277 159.145 114.469 159.662L113.754 161.953ZM238.066 157.539L236.068 156.116C236.819 155.042 237.499 153.92 238.103 152.755L240.265 153.882C239.587 155.176 238.821 156.423 237.974 157.612L238.066 157.539ZM102.426 156.837C101.18 156.227 99.9518 155.599 98.7604 154.99L99.8602 152.94C101.052 153.568 102.261 154.196 103.526 154.787L102.426 156.837ZM91.4835 151.093C90.2921 150.391 89.1006 149.671 87.9642 148.932L89.2656 146.845C90.3837 147.565 91.5568 148.286 92.7299 148.988L91.4835 151.093ZM68.938 150.373L66.5368 149.911C66.8195 148.503 67.2117 147.12 67.7099 145.774L70.0011 146.624C69.5674 147.814 69.2243 149.037 68.9747 150.28L68.938 150.373ZM242.703 145.792L240.265 145.534C240.335 144.921 240.372 144.304 240.375 143.687C240.373 143.07 240.337 142.453 240.265 141.84L242.703 141.582C242.777 142.299 242.813 143.021 242.813 143.742C242.818 144.396 242.794 145.049 242.74 145.7L242.703 145.792ZM81.1272 144.278C80.0091 143.447 78.891 142.616 77.8279 141.766L79.3309 139.827C80.3757 140.658 81.4572 141.471 82.557 142.283L81.1272 144.278ZM73.7037 139.532L71.6691 138.165C72.439 137.038 73.2821 135.912 74.1803 134.785L76.0133 136.336C75.2251 137.389 74.4186 138.479 73.7037 139.532ZM71.5775 136.318C70.551 135.358 69.5612 134.36 68.6264 133.381L70.4594 131.664C71.3758 132.624 72.2923 133.511 73.3188 134.526L71.5775 136.318ZM237.993 134.342C237.379 133.187 236.687 132.076 235.921 131.017L237.901 129.558C238.733 130.738 239.487 131.972 240.155 133.252L237.993 134.342ZM81.5671 130.463L79.8991 128.616C80.889 127.693 81.9337 126.77 83.0152 125.846L84.5732 127.693C83.5284 128.653 82.5203 129.558 81.5671 130.463ZM63.2375 126.917C62.3943 125.772 61.5878 124.609 60.8729 123.445L62.9442 122.134C63.6224 123.242 64.3922 124.35 65.1987 125.44L63.2375 126.917ZM230.587 125.07C229.653 124.202 228.626 123.334 227.545 122.485L229.048 120.638C230.184 121.524 231.247 122.485 232.237 123.353L230.587 125.07ZM90.9886 122.854L89.6505 120.823C90.7686 120.047 91.9417 119.271 93.0965 118.514L94.4162 120.601C93.3165 121.321 92.0884 122.079 90.9886 122.854ZM220.928 117.849C219.81 117.147 218.636 116.464 217.445 115.799L218.636 113.638C219.865 114.322 221.074 115.042 222.211 115.744L220.928 117.849ZM101.327 116.483L100.172 114.322C101.363 113.657 102.61 113.01 103.838 112.475L104.937 114.691C103.728 115.171 102.481 115.818 101.327 116.464V116.483ZM57.042 116.002C56.5288 114.673 56.0706 113.306 55.704 111.976L58.0685 111.33C58.4168 112.567 58.8384 113.841 59.3149 115.023L57.042 116.002ZM210.241 112.142L206.576 110.499L207.529 108.227C208.793 108.781 210.076 109.335 211.305 109.908L210.241 112.142ZM112.269 111.2L111.316 108.929C112.563 108.393 113.864 107.858 115.129 107.359L116.027 109.649C114.781 110.074 113.479 110.609 112.269 111.145V111.2ZM198.987 107.507C197.722 107.063 196.439 106.62 195.138 106.195L195.889 103.85C197.209 104.275 198.529 104.736 199.794 105.18L198.987 107.507ZM123.652 106.768L122.882 104.422C124.202 103.998 125.522 103.573 126.841 103.185L127.538 105.549C126.31 105.992 124.935 106.399 123.652 106.768ZM187.348 103.831C186.046 103.499 184.708 103.167 183.407 102.871L183.957 100.47C185.276 100.766 186.633 101.098 187.971 101.449L187.348 103.831ZM54.4759 103.48C54.4759 102.816 54.4759 102.169 54.4759 101.523C54.4759 100.876 54.4759 100.008 54.4759 99.2696L56.9137 99.3804C56.9137 100.082 56.9137 100.784 56.9137 101.523C56.9137 102.262 56.9137 102.76 56.9137 103.37L54.4759 103.48ZM135.365 103.48L134.815 101.227C136.153 100.913 137.509 100.618 138.847 100.341L139.324 102.76C138.004 102.926 136.666 103.222 135.365 103.517V103.48ZM175.47 101.338L173.967 101.227L171.511 100.932L171.767 98.4755L174.315 98.7894L175.873 99.0295L175.47 101.338ZM147.316 101.338L146.986 98.9002C148.36 98.7155 149.735 98.5678 151.092 98.4385L151.33 100.876C149.992 100.987 148.654 101.227 147.316 101.32V101.338ZM159.395 100.378V97.9214C160.77 97.9214 162.144 97.9214 163.519 97.9214V100.396C162.089 100.322 160.733 100.341 159.395 100.359V100.378ZM57.9402 91.4943L55.5573 90.9587C55.8506 89.5735 56.2355 88.2068 56.6571 86.8771L58.985 87.6528C58.568 88.9133 58.2192 90.1956 57.9402 91.4943ZM62.1927 80.413L60.0848 79.1756C60.7947 77.955 61.5655 76.7715 62.3943 75.6296L64.3739 77.0886C63.574 78.148 62.8335 79.2517 62.156 80.3945L62.1927 80.413ZM164.216 71.862C162.809 71.7903 161.407 71.6361 160.018 71.4002L160.421 68.9624C161.72 69.1829 163.029 69.3309 164.344 69.4056L164.216 71.862ZM69.6712 71.1601L68.0215 69.3133C69.048 68.3898 70.1294 67.4664 71.2659 66.6168L72.7322 68.593C71.6691 69.4241 70.6243 70.2736 69.6712 71.1601ZM151.971 68.9993C150.674 68.4552 149.407 67.8386 148.177 67.1524L149.35 64.9916C150.506 65.6235 151.693 66.1968 152.906 66.7092L151.971 68.9993ZM79.4776 64.2898L78.3228 62.1104C79.5326 61.4825 80.7973 60.8546 81.9887 60.2636L82.9785 62.5168C81.8421 63.1078 80.614 63.6988 79.4776 64.2898ZM141.212 62.4429C140.166 61.7229 139.056 61.1045 137.894 60.596L138.921 58.3613C140.206 58.9664 141.433 59.6898 142.587 60.5221L141.212 62.4429ZM90.6037 59.7464L89.8888 57.3824C91.1902 56.9946 92.5466 56.6252 93.903 56.2743L94.4712 58.6753C93.1698 58.9892 91.8684 59.3586 90.6037 59.7464ZM130.379 58.0288C129.133 57.7333 127.813 57.4748 126.457 57.2532L126.841 54.8338C128.253 55.0554 129.628 55.3324 130.947 55.6464L130.379 58.0288ZM102.481 57.1423L102.133 54.7045C103.489 54.5198 104.882 54.3536 106.257 54.2243L106.477 56.6806C105.047 56.9023 103.709 56.9023 102.481 57.1423ZM118.556 56.4221C117.237 56.4221 115.88 56.3113 114.524 56.3113V53.8549C115.917 53.8549 117.31 53.8549 118.666 53.9657L118.556 56.4221Z" fill="#00A8FF"/>
<path d="M108.2 186.645L106.147 186.184L106.752 183.783C107.412 183.967 108.053 184.134 108.713 184.281L108.2 186.645Z" fill="#2B46A6"/>
<path d="M133.862 87.856C133.805 88.6884 133.613 89.5058 133.293 90.2754C133.015 90.7033 132.644 91.063 132.21 91.3282C131.775 91.5934 131.288 91.7575 130.782 91.8083C129.774 91.9746 128.748 91.9007 127.739 91.993C126.731 92.0854 125.632 92.6764 125.741 93.6183C125.793 93.9071 125.913 94.1794 126.09 94.4124L127.318 96.4994C127.477 96.7039 127.555 96.9605 127.538 97.2197C127.538 97.5706 127.08 97.7553 126.75 97.903C125.918 98.33 125.185 98.9264 124.594 99.6545C124.004 100.383 123.571 101.226 123.322 102.132C122.822 103.945 122.822 105.861 123.322 107.673C123.337 107.8 123.378 107.922 123.441 108.033C123.504 108.144 123.588 108.242 123.689 108.319C123.857 108.412 124.047 108.456 124.238 108.449C124.814 108.547 125.363 108.762 125.855 109.079C126.346 109.396 126.769 109.81 127.098 110.296C127.734 111.303 128.304 112.352 128.803 113.435C130.176 116.031 132.182 118.231 134.631 119.831C137.081 121.43 139.894 122.375 142.806 122.577C143.283 122.625 143.765 122.568 144.218 122.411C144.76 122.135 145.198 121.687 145.464 121.137C146.729 118.81 146.362 116.021 146.454 113.472C146.449 112.207 146.685 110.953 147.151 109.778C147.444 109.114 147.719 109.077 148.14 108.689C148.341 108.556 148.506 108.375 148.621 108.162C148.736 107.95 148.798 107.712 148.8 107.47C148.703 106.842 148.549 106.224 148.342 105.623C148.19 104.462 148.45 103.285 149.075 102.299C149.696 101.333 150.265 100.334 150.78 99.3067C151.137 98.3517 151.36 97.3507 151.44 96.3332C151.963 93.7367 151.526 91.0371 150.212 88.7425C149.697 88.0094 149.034 87.3949 148.266 86.9395C147.498 86.4842 146.643 86.1986 145.757 86.1015C145.03 86.0803 144.306 85.9938 143.595 85.8429C142.513 85.492 142.147 84.3654 141.01 83.996C140.026 83.6501 138.967 83.5862 137.949 83.8114C136.957 84.026 136.047 84.5202 135.323 85.2363C134.599 85.9523 134.092 86.8609 133.862 87.856Z" fill="#CDAC6D"/>
<path d="M139.379 198.853C140.05 199.443 140.625 200.135 141.083 200.903C141.174 201.046 141.212 201.216 141.193 201.384C141.193 201.642 140.845 201.79 140.57 201.864C139.434 202.159 138.232 202.064 137.156 201.592C136.08 201.12 135.191 200.299 134.631 199.26C133.783 198.035 133.323 196.579 133.312 195.086L133.623 192.685C133.661 192.312 133.747 191.945 133.88 191.595C134.057 191.254 134.286 190.942 134.558 190.672C135.011 190.157 135.559 189.737 136.171 189.434C136.242 189.409 136.32 189.409 136.391 189.434C136.538 189.434 136.611 189.619 136.648 189.748C136.75 190.364 136.712 190.996 136.538 191.595C136.324 193.354 136.733 195.133 137.692 196.619C138.156 197.434 138.723 198.185 139.379 198.853Z" fill="#E2BC9C"/>
<path d="M145.519 185.26C145.554 185.447 145.629 185.623 145.739 185.777C145.836 185.905 145.962 186.006 146.106 186.073C146.731 186.335 147.415 186.424 148.086 186.332C148.91 186.332 149.717 186.165 150.523 186.036C150.753 186.038 150.979 185.982 151.181 185.872C151.383 185.762 151.554 185.603 151.678 185.408C151.737 185.189 151.721 184.956 151.631 184.748C151.541 184.54 151.383 184.369 151.183 184.263C150.784 184.057 150.348 183.931 149.9 183.894C149.449 183.835 149.03 183.627 148.709 183.303C148.25 182.73 148.452 181.825 147.976 181.271C147.683 181.05 147.342 180.903 146.982 180.842C146.622 180.781 146.252 180.808 145.904 180.92C144.42 181.382 145.208 184.208 145.519 185.26Z" fill="#E2BC9C"/>
<path d="M151.971 163.264C151.88 163.652 151.806 164.04 151.733 164.427C150.908 169.229 149.9 174.013 148.965 178.796C148.849 179.849 148.428 180.845 147.756 181.659C147.572 181.888 147.336 182.07 147.068 182.189C146.8 182.308 146.508 182.36 146.216 182.342H146.051C145.281 182.084 144.841 180.994 144.841 179.904L145.244 160.327C145.308 160.098 145.308 159.855 145.244 159.626C145.093 159.418 144.891 159.253 144.658 159.145C144.108 158.85 143.576 158.536 143.045 158.222C141.413 157.28 139.819 156.264 138.261 155.212C136.171 153.789 134.137 152.293 132.175 150.687C130.75 149.812 129.619 148.525 128.931 146.993C128.279 145.109 127.532 143.26 126.695 141.452C125.726 139.17 124.573 136.971 123.249 134.877C123.084 134.637 122.461 133.418 122.112 133.363L135.438 134.84C136.62 134.788 137.776 135.199 138.664 135.986C140.116 137.694 141.44 139.509 142.623 141.415C145.391 145.109 148.122 148.932 150.945 152.681C152.103 153.935 152.841 155.525 153.053 157.225C152.896 159.269 152.533 161.293 151.971 163.264Z" fill="#2C3236"/>
<path d="M136.831 190.986C136.651 191.238 136.435 191.462 136.189 191.65C135.812 191.982 135.393 192.261 134.943 192.482H134.815C134.304 192.694 133.731 192.694 133.22 192.482C131.882 191.909 132.285 188.603 132.212 187.31C132.084 185.279 131.974 183.266 131.845 181.234C131.625 177.282 131.387 173.329 131.167 169.359C131.057 167.512 130.929 165.665 130.837 163.818L130.159 162.618L129.847 162.082L129.481 161.436L129.096 160.715C128.876 160.346 128.656 159.94 128.418 159.515C128.033 158.794 127.666 158.037 127.281 157.299C127.041 156.802 126.772 156.321 126.475 155.858C126.377 155.702 126.266 155.553 126.145 155.415C125.411 154.614 124.621 153.867 123.78 153.18C121.245 150.8 119.557 147.646 118.978 144.204C118.826 143.264 118.764 142.312 118.795 141.36C118.814 139.881 119.049 138.412 119.491 137.001C119.838 135.994 120.28 135.023 120.811 134.102C121.228 133.282 121.787 132.544 122.46 131.922C122.776 131.628 123.134 131.386 123.524 131.202C126.053 130.039 128.619 132.938 130.379 134.471C132.139 136.004 135.181 138.165 136.134 140.473C137.088 142.782 138.884 162.174 138.884 162.174C138.884 166.939 138.884 171.704 138.609 176.451C138.499 179.276 138.371 182.102 138.096 184.909C138.083 187 137.653 189.066 136.831 190.986Z" fill="#2C3236"/>
<path d="M134.943 192.481H134.815C134.304 192.694 133.731 192.694 133.22 192.481C131.882 191.909 132.285 188.603 132.212 187.31C132.084 185.279 131.974 183.266 131.845 181.234C131.625 177.282 131.387 173.329 131.167 169.359C131.057 167.512 130.929 165.665 130.837 163.818L130.159 162.617L129.847 162.082L129.481 161.435L129.096 160.715C128.876 160.346 128.656 159.94 128.418 159.515L127.116 157.169L126.145 155.322C125.411 154.521 124.621 153.774 123.78 153.088C121.262 150.732 119.576 147.613 118.978 144.204C118.826 143.264 118.764 142.312 118.795 141.36C118.814 139.881 119.049 138.412 119.491 137.001C119.838 135.994 120.28 135.023 120.811 134.102C121.228 133.282 121.787 132.544 122.46 131.922C122.608 132.059 122.737 132.214 122.845 132.384C124.238 134.397 124.165 137.038 124.312 139.495C124.404 142.559 125.024 145.583 126.145 148.433L126.64 149.449C126.706 149.595 126.779 149.736 126.86 149.874C128.77 152.928 130.467 156.112 131.937 159.404C134.815 166.791 133.77 174.881 134.136 182.712C134.25 184.878 134.482 187.036 134.833 189.176C135.049 190.264 135.086 191.381 134.943 192.481Z" fill="url(#paint1_linear_1_1977)"/>
<path d="M176.001 131.978C175.25 131.978 174.498 131.978 173.765 131.978C172.995 131.916 172.24 131.729 171.529 131.424C170.851 131.11 170.282 130.63 169.586 130.334C168.156 129.706 166.598 129.411 165.205 128.69C163.097 127.619 161.063 126.4 159.046 125.2L154.171 122.282C152.523 121.332 150.927 120.296 149.387 119.179L148.488 118.477C148.049 118.108 147.499 117.701 146.949 117.868C146.726 117.974 146.526 118.125 146.362 118.311C145.724 119.191 145.321 120.221 145.189 121.303C144.948 122.246 144.584 123.152 144.108 123.999C143.21 125.661 142.366 127.361 141.395 128.967C140.689 130.539 139.694 131.962 138.462 133.16C137.653 133.591 136.729 133.753 135.823 133.622C133.885 133.36 131.927 133.286 129.976 133.4C129.083 133.612 128.176 133.76 127.263 133.843C125.851 133.813 124.485 133.335 123.359 132.476C122.369 131.701 122.809 130.63 123.212 129.614C124.752 125.569 126.273 123.205 124.477 119.05C124.825 119.862 117.365 122.743 116.43 122.743C112.526 122.743 110.198 119.862 107.265 117.628C105.521 116.338 103.683 115.184 101.766 114.174C101.184 113.832 100.57 113.548 99.9332 113.324C99.3283 113.121 98.5402 113.14 98.1002 112.715C97.9169 112.546 97.7567 112.354 97.6237 112.142C97.3807 111.761 97.1838 111.352 97.0371 110.923C96.9141 110.413 96.6541 109.947 96.2856 109.575C95.7327 109.249 95.0763 109.15 94.4526 109.298C94.1176 109.335 93.7796 109.335 93.4445 109.298C93.3809 109.296 93.3184 109.28 93.2614 109.252C93.2044 109.223 93.1544 109.182 93.1146 109.132C93.0685 109.071 93.0435 108.996 93.0435 108.92C93.0435 108.843 93.0685 108.768 93.1146 108.707C93.2423 108.619 93.3854 108.557 93.5362 108.522L96.0473 107.987C95.3325 107.359 94.2144 107.525 93.3345 107.23C93.216 107.198 93.1083 107.134 93.0229 107.045C92.9799 106.942 92.9789 106.826 93.0201 106.722C93.0613 106.619 93.1413 106.536 93.2429 106.491C93.458 106.425 93.6876 106.425 93.9028 106.491L96.6155 106.805C95.809 105.808 94.0861 106.103 93.2612 105.124C93.5818 104.908 93.9511 104.776 94.3353 104.74C94.7196 104.705 95.1065 104.767 95.4608 104.921C96.5165 105.073 97.5392 105.404 98.4852 105.9C99.0599 106.237 99.5896 106.647 100.062 107.119C101.874 109.101 103.821 110.952 105.89 112.659C107.337 113.61 108.902 114.361 110.546 114.894C111.261 115.153 112.012 115.319 112.727 115.559C113.442 115.799 114.34 116.242 115.129 116.575C115.422 116.732 115.749 116.815 116.082 116.815C116.348 116.764 116.603 116.663 116.833 116.519C118.488 115.498 119.952 114.191 121.159 112.659C122.46 111.108 123.982 109.741 125.356 108.264C125.889 107.63 126.552 107.12 127.299 106.768C128.692 106.288 130.177 106.99 131.662 107.045C132.281 107.076 132.9 106.975 133.478 106.749C134.055 106.523 134.58 106.177 135.016 105.734C135.878 104.718 135.841 103.203 136.849 102.188C137.415 101.647 138.12 101.276 138.884 101.116C139.722 100.843 140.537 100.504 141.322 100.101C141.945 99.8052 142.733 99.5282 143.283 99.9529C143.368 100.009 143.438 100.086 143.486 100.176C143.534 100.266 143.559 100.368 143.558 100.47C143.554 100.649 143.497 100.823 143.393 100.969C143.003 101.737 142.654 102.527 142.348 103.333C141.953 104.146 141.801 105.057 141.908 105.955C142.165 107.23 143.741 107.95 144.804 108.412C146.344 109.077 148.049 109.187 149.588 109.815C151.123 110.53 152.501 111.547 153.639 112.807C155.472 114.654 156.993 116.501 158.661 118.348C159.505 119.271 160.366 120.195 161.301 121.063C162.543 121.946 163.855 122.724 165.223 123.39C166.736 124.391 168.324 125.274 169.971 126.031C171.147 126.562 172.376 126.964 173.637 127.231C174.15 127.381 174.67 127.504 175.195 127.601C175.745 127.601 176.038 127.416 176.496 127.139C177.195 126.771 178.003 126.673 178.769 126.862C180.423 127.232 181.971 127.978 183.297 129.041C183.681 129.3 184.103 129.688 184.03 130.149C184.049 130.209 184.049 130.274 184.03 130.334C183.883 130.463 183.663 130.334 183.498 130.205C182.931 129.792 182.234 129.602 181.537 129.669C182.05 130.076 182.6 130.574 182.545 131.221C182.563 131.268 182.563 131.321 182.545 131.368C182.519 131.381 182.491 131.388 182.463 131.388C182.434 131.388 182.406 131.381 182.38 131.368C181.812 131.368 181.39 130.833 180.859 130.574C180.342 130.337 179.775 130.235 179.209 130.279C178.952 130.279 178.128 130.279 178.128 130.611C178.112 130.665 178.112 130.723 178.128 130.777C178.281 130.978 178.46 131.158 178.659 131.313C178.759 131.388 178.834 131.492 178.876 131.61C178.919 131.728 178.926 131.856 178.897 131.978C178.769 132.236 178.421 132.273 178.128 132.255C177.358 132.218 176.698 132.052 176.001 131.978Z" fill="#F9D1AF"/>
<path d="M173.692 131.719C173.491 131.845 173.266 131.927 173.032 131.959C172.273 131.906 171.556 131.593 170.998 131.073C169.112 130.128 167.164 129.314 165.169 128.635C163.061 127.564 161.026 126.345 159.01 125.144L154.171 122.282C152.524 121.332 150.927 120.297 149.387 119.179C149.808 119.493 151.55 116.834 151.843 116.593C153.548 115.19 152.943 118.2 152.906 119.216C152.869 119.417 152.869 119.624 152.906 119.825C153.038 120.088 153.25 120.302 153.511 120.435C156.59 122.466 159.761 124.35 163.024 126.086C164.674 126.954 166.378 127.749 168.046 128.598C169.421 129.3 170.906 129.706 172.336 130.279C172.94 130.519 173.619 130.888 173.637 131.535C173.665 131.593 173.683 131.655 173.692 131.719Z" fill="black" fill-opacity="0.2"/>
<path d="M135.933 103.24C135.977 103.887 135.823 104.531 135.493 105.087C135.016 105.734 138.206 106.583 139.159 105.66C140.153 104.535 141.072 103.344 141.908 102.095L135.933 103.24Z" fill="black" fill-opacity="0.2"/>
<path d="M139.709 103.462C138.687 103.862 137.57 103.946 136.501 103.702C135.972 103.57 135.478 103.321 135.056 102.973C134.635 102.625 134.295 102.186 134.063 101.689C133.832 101.013 133.739 100.297 133.788 99.5835C133.904 96.1257 135.083 92.7895 137.161 90.0351C137.467 89.5789 137.867 89.1946 138.334 88.9086C138.967 88.6 139.691 88.5344 140.368 88.7239C141.673 89.0711 142.831 89.8359 143.668 90.9032C144.496 91.9549 145.197 93.1018 145.757 94.3199C146.161 95.0771 146.912 96.2776 146.564 97.1641C146.056 97.9834 145.439 98.7291 144.731 99.3804C143.459 101.178 141.722 102.59 139.709 103.462Z" fill="#F9D1AF"/>
<path d="M140.717 133.437C140.288 134.125 139.68 134.681 138.96 135.046C138.239 135.41 137.433 135.569 136.629 135.505C133.458 135.764 130.269 134.933 127.116 135.505C126.145 135.671 125.283 135.967 124.22 136.041H123.945C123.412 136.092 122.874 136.016 122.374 135.82C121.875 135.625 121.427 135.315 121.068 134.914C120.078 133.603 120.701 131.719 121.343 130.186C122.534 127.434 124.77 124.276 123.487 121.21C123.322 120.878 123.102 120.583 122.956 120.25C122.805 119.889 122.7 119.511 122.644 119.123L122.167 116.759C121.837 115.19 121.526 113.62 121.196 112.031C121.122 111.716 121.122 111.387 121.196 111.071C121.357 110.658 121.647 110.308 122.021 110.074L125.338 107.414C125.984 106.804 126.762 106.355 127.611 106.103C128.512 106.023 129.419 106.073 130.306 106.251C131.486 106.207 132.656 106.015 133.788 105.678C133.935 105.678 134.1 105.678 134.21 105.678C134.324 105.79 134.39 105.943 134.393 106.103C134.52 106.622 134.758 107.107 135.09 107.525C135.327 107.82 135.584 108.097 135.86 108.356L136.208 108.689L138.206 110.536C138.625 110.982 139.115 111.356 139.654 111.644C141.487 112.475 142.788 110.258 142.697 108.615C142.591 107.692 142.318 106.797 141.89 105.974C142.733 106.306 143.576 106.676 144.42 107.063C145.183 107.522 145.98 107.923 146.802 108.264C148.085 108.615 149.314 108.264 150.468 109.076C151.994 110.076 153.397 111.254 154.648 112.586L153.804 114.543C152.686 116.907 151.385 119.456 149.002 120.49C148.379 120.749 147.737 120.915 147.169 121.21C146.143 121.728 146.033 122.54 145.574 123.464C144.786 125.07 143.998 126.677 143.283 128.302C142.567 130.081 141.709 131.798 140.717 133.437Z" fill="#984B59"/>
<path d="M144.035 110.332C144.183 110.15 144.371 110.005 144.585 109.907C144.759 109.861 144.942 109.861 145.116 109.907C147.426 110.092 149.735 110.351 152.026 110.665C149.185 108.116 144.695 108.227 141.652 106.066C141.23 106.86 141.652 107.784 141.872 108.652C142 109.434 142 110.233 141.872 111.016C142.26 111.106 142.665 111.091 143.046 110.971C143.426 110.85 143.767 110.63 144.035 110.332Z" fill="url(#paint2_linear_1_1977)"/>
<path d="M99.2184 112.309C98.7115 112.442 98.1746 112.397 97.697 112.179C97.4506 111.8 97.2534 111.39 97.1105 110.961C96.9875 110.45 96.7275 109.984 96.359 109.612C95.8054 109.288 95.1497 109.189 94.526 109.335C94.8722 109.115 95.2714 108.994 95.6808 108.984C95.9009 108.978 96.1161 108.917 96.3077 108.807C96.4993 108.698 96.6616 108.543 96.7805 108.356C96.7805 108.209 96.7805 108.024 96.9638 107.895C97.1471 107.765 97.4404 107.729 97.697 107.765C98.215 107.891 98.7187 108.071 99.2 108.301C99.5455 108.429 99.863 108.624 100.135 108.874C100.266 108.972 100.376 109.097 100.458 109.24C100.54 109.383 100.592 109.541 100.611 109.705C100.446 109.705 100.208 109.52 100.043 109.428C99.8332 109.318 99.612 109.231 99.3833 109.169C98.9176 109.044 98.434 109 97.9536 109.04C97.9536 109.04 97.807 109.04 97.7887 109.04C97.7703 109.04 97.7887 109.206 97.8986 109.261C98.5768 109.797 99.4383 110.056 100.098 110.628C100.206 110.692 100.289 110.789 100.336 110.905C100.4 111.059 100.4 111.232 100.336 111.385C100.247 111.624 100.096 111.836 99.9 111.998C99.7038 112.16 99.4687 112.267 99.2184 112.309Z" fill="black" fill-opacity="0.2"/>
<path d="M152.924 184.448C152.648 184.291 152.34 184.197 152.024 184.171C151.708 184.146 151.39 184.19 151.092 184.3C150.817 184.487 150.554 184.69 150.303 184.909C149.514 185.224 148.636 185.224 147.847 184.909C146.981 184.637 146.091 184.445 145.189 184.337C145.189 184.337 145.189 186.184 145.519 186.35C145.95 186.501 146.401 186.589 146.857 186.608C148.683 186.845 150.531 186.845 152.356 186.608C152.87 186.498 154.592 186.221 154.831 185.648C155.069 185.075 153.401 184.614 152.924 184.448Z" fill="#505860"/>
<path d="M142.311 201.254C142.642 201.625 142.853 202.089 142.916 202.584C142.925 202.756 142.873 202.926 142.77 203.064C142.647 203.157 142.501 203.215 142.348 203.23C141.144 203.498 139.9 203.535 138.682 203.341C137.481 203.152 136.38 202.552 135.566 201.642C135.035 200.996 134.686 200.22 134.191 199.555C133.697 198.89 133.238 198.466 132.853 197.856C132.468 197.247 132.853 196.157 133.147 195.492C133.477 195.492 133.367 196.138 133.513 196.434C134.012 197.52 134.723 198.493 135.603 199.297C135.979 199.731 136.44 200.084 136.957 200.331C137.474 200.579 138.037 200.717 138.609 200.737C138.817 200.737 139.022 200.687 139.207 200.591C139.392 200.494 139.552 200.354 139.672 200.183C139.855 199.888 139.672 199.204 139.984 199.093C140.295 198.983 142.018 200.959 142.311 201.254Z" fill="#505860"/>
<path d="M146.289 182.342H146.124C145.354 182.084 144.915 180.994 144.915 179.904L145.244 160.327C145.308 160.098 145.308 159.855 145.244 159.626C145.093 159.418 144.891 159.253 144.658 159.145C144.108 158.85 143.576 158.536 143.045 158.222C141.414 157.28 139.819 156.264 138.261 155.212L137.308 147.399C137.308 147.399 146.967 153.845 147.976 156.874C148.984 159.903 146.289 182.342 146.289 182.342Z" fill="url(#paint3_linear_1_1977)"/>
<path d="M141.689 95.1326C142.417 95.4038 143.165 95.6199 143.925 95.779C144.676 96.0375 145.428 96.6101 145.446 97.3857C146.088 97.3857 146.436 96.647 146.619 96.0375C146.991 95.0189 147.237 93.9583 147.353 92.8794C147.456 91.7977 147.198 90.7121 146.619 89.7951C145.575 88.2991 141.707 85.4919 140.479 88.1144C139.544 90.146 139.434 93.9506 141.689 95.1326Z" fill="#CDAC6D"/>
<path d="M161.136 175.472C159.78 175.25 158.423 175.029 157.067 174.77L157.507 172.351C158.845 172.591 160.183 172.831 161.521 173.034L161.136 175.472Z" fill="#00A8FF"/>
<path d="M148.947 173.145C147.609 172.849 146.289 172.535 144.951 172.203L145.519 169.82L149.479 170.744L148.947 173.145Z" fill="#00A8FF"/>
<path d="M136.978 170.116L133.019 168.952L133.733 166.588C135.035 166.995 136.336 167.364 137.638 167.733L136.978 170.116Z" fill="#00A8FF"/>
<path d="M125.192 166.404C123.908 165.96 122.607 165.499 121.324 165.019L122.167 162.71L125.998 164.077L125.192 166.404Z" fill="#00A8FF"/>
<path d="M199.286 137.067C191.994 135.201 188.2 127.161 191.395 120.346L199.947 102.107C202.365 96.9499 208.076 94.2032 213.614 95.5331L223.443 97.8931C230.844 99.6701 234.742 107.799 231.494 114.683L222.828 133.047C220.373 138.248 214.574 140.977 209.002 139.551L199.286 137.067Z" fill="#00A8FF"/>
<path d="M53.1008 67.8362C48.5206 55.0665 55.4269 41.0416 68.3412 36.8868L78.0028 33.7784C91.3012 29.4999 105.429 37.439 108.69 51.0227L112.733 67.8653C115.313 78.612 110.221 89.7311 100.398 94.7975L92.99 98.6186C80.0963 105.269 64.2955 99.0476 59.3974 85.3915L53.1008 67.8362Z" fill="#F0F1F2"/>
<path d="M41.6501 157.178C40.7501 162.01 42.8877 166.902 47.0447 169.525L54.341 174.127C61.0575 178.364 69.9634 175.026 72.2399 167.418L74.459 160.002C75.9527 155.01 74.054 149.624 69.7598 146.673L61.7888 141.194C54.6332 136.276 44.7844 140.35 43.1945 148.886L41.6501 157.178Z" fill="#00A8FF"/>
<path d="M199.758 198.156C193.253 198.827 187.865 193.176 188.845 186.711L190.947 172.837C191.65 168.196 195.488 164.668 200.173 164.358L218.231 163.161C225.02 162.711 230.267 169.025 228.581 175.617L225.168 188.96C224.13 193.018 220.672 195.999 216.506 196.429L199.758 198.156Z" fill="#F0F1F2"/>
<path d="M198.749 127.712L195.266 126.917L197.997 121.469L201.498 122.263L198.749 127.712Z" fill="white"/>
<path d="M203.056 128.672L199.555 127.896L205.146 116.797L208.647 117.572L203.056 128.672Z" fill="#2B46A6"/>
<path d="M207.363 129.651L203.862 128.857L207.272 122.097L210.754 122.891L207.363 129.651Z" fill="white"/>
<path d="M211.653 130.63L208.17 129.835L215.538 115.227L219.021 116.021L211.653 130.63Z" fill="#2B46A6"/>
<path d="M203.056 128.672L199.555 127.896L205.146 116.797L208.647 117.572L203.056 128.672Z" fill="#FFBA00"/>
<path d="M211.653 130.63L208.17 129.835L215.538 115.227L219.021 116.021L211.653 130.63Z" fill="#FFBA00"/>
<path d="M215.96 131.609L212.477 130.814L221.899 112.124L225.381 112.918L215.96 131.609Z" fill="white"/>
<path d="M73.4651 66.6354C73.457 65.0281 73.8012 63.4389 74.4733 61.9812L67.6546 58.1951C66.3573 60.8162 65.6857 63.7064 65.6934 66.6354C65.707 70.878 67.1211 74.9956 69.7129 78.3393C72.3047 81.6831 75.9269 84.063 80.0088 85.1042L81.4019 77.2919C79.1217 76.6045 77.1204 75.1986 75.6919 73.2805C74.2634 71.3624 73.4829 69.0334 73.4651 66.6354Z" fill="#FFBA00"/>
<path opacity="0.18" d="M100.868 76.4608C99.1731 79.2855 96.7818 81.6203 93.9265 83.2385C91.0711 84.8566 87.8489 85.7029 84.573 85.6951C83.0026 85.6955 81.4384 85.497 79.9172 85.1041L81.3103 77.2918C82.3688 77.6114 83.468 77.7732 84.573 77.772C86.4428 77.7756 88.2833 77.3036 89.9238 76.3996C91.5644 75.4956 92.9519 74.189 93.9577 72.6008L100.868 76.4608Z" fill="#2B46A6"/>
<path d="M103.563 66.6353C103.568 70.0963 102.636 73.4931 100.868 76.4607L93.958 72.6746C94.7917 71.3787 95.3507 69.9233 95.6 68.3996C95.8492 66.8759 95.7834 65.3167 95.4065 63.8198C95.0296 62.3229 94.3499 60.9207 93.4099 59.7009C92.4699 58.4812 91.2899 57.4703 89.9439 56.7316C88.598 55.9929 87.1151 55.5424 85.5882 55.4083C84.0614 55.2741 82.5234 55.4593 81.0709 55.9522C79.6184 56.4451 78.2827 57.235 77.1474 58.2725C76.0121 59.31 75.1018 60.5726 74.4736 61.9812L67.6549 58.1951C69.5445 54.3185 72.6813 51.201 76.5542 49.3504C80.4271 47.4998 84.8079 47.0252 88.9827 48.004C93.1575 48.9828 96.8803 51.3573 99.5446 54.7406C102.209 58.1238 103.657 62.3164 103.654 66.6353H103.563Z" fill="#00A8FF"/>
<path d="M197.796 188.806C197.79 188.701 197.807 188.595 197.845 188.496C197.883 188.398 197.941 188.308 198.015 188.234C198.357 187.884 198.603 187.451 198.73 186.978C198.808 186.68 198.792 186.365 198.684 186.077C198.575 185.789 198.38 185.542 198.125 185.371C197.813 185.134 197.458 184.958 197.081 184.854C196.893 184.802 196.731 184.684 196.623 184.521C196.515 184.358 196.47 184.162 196.494 183.967C196.494 183.727 196.494 183.469 196.494 183.229C196.501 183.117 196.53 183.008 196.579 182.907C196.628 182.807 196.696 182.717 196.779 182.644C196.863 182.57 196.96 182.513 197.065 182.477C197.17 182.442 197.281 182.427 197.392 182.434C197.753 182.429 198.109 182.348 198.437 182.194C198.79 182.057 199.078 181.79 199.245 181.448C199.411 181.106 199.444 180.713 199.335 180.347C199.246 180.024 199.13 179.709 198.987 179.406C198.903 179.23 198.882 179.031 198.929 178.842C198.976 178.653 199.087 178.486 199.244 178.371C199.435 178.234 199.618 178.086 199.793 177.928C199.957 177.802 200.156 177.734 200.362 177.734C200.567 177.734 200.767 177.802 200.93 177.928C201.198 178.201 201.515 178.42 201.865 178.574C202.183 178.711 202.538 178.734 202.871 178.64C203.205 178.546 203.496 178.341 203.698 178.057C203.94 177.723 204.12 177.348 204.229 176.949C204.292 176.764 204.419 176.607 204.588 176.509C204.756 176.41 204.955 176.376 205.146 176.414H205.879C206.075 176.432 206.257 176.524 206.389 176.671C206.522 176.818 206.595 177.009 206.594 177.208C206.614 177.685 206.739 178.152 206.96 178.574C207.123 178.848 207.364 179.065 207.652 179.197C207.941 179.329 208.262 179.37 208.573 179.313C208.931 179.237 209.276 179.113 209.6 178.944C209.788 178.833 210.012 178.8 210.223 178.852C210.435 178.903 210.619 179.036 210.736 179.221C210.865 179.443 211.066 179.627 211.213 179.849C211.312 180.004 211.356 180.189 211.34 180.373C211.323 180.557 211.246 180.73 211.121 180.865C210.843 181.151 210.625 181.49 210.48 181.862C210.317 182.225 210.303 182.637 210.44 183.011C210.577 183.384 210.855 183.688 211.213 183.857C211.48 184.015 211.762 184.145 212.056 184.244C212.23 184.294 212.382 184.401 212.489 184.548C212.595 184.696 212.649 184.875 212.643 185.057C212.643 185.353 212.643 185.648 212.533 185.962C212.505 186.156 212.408 186.333 212.259 186.459C212.11 186.586 211.92 186.652 211.726 186.645C211.294 186.664 210.87 186.771 210.48 186.959C210.183 187.101 209.942 187.337 209.793 187.631C209.643 187.924 209.595 188.26 209.655 188.585C209.714 188.964 209.831 189.331 210.003 189.674C210.063 189.766 210.104 189.868 210.124 189.976C210.144 190.084 210.141 190.195 210.117 190.302C210.093 190.409 210.048 190.51 209.984 190.599C209.921 190.688 209.84 190.763 209.746 190.819L209.233 191.207C209.082 191.358 208.878 191.443 208.665 191.443C208.452 191.443 208.248 191.358 208.097 191.207C207.798 190.92 207.442 190.7 207.052 190.561C206.726 190.431 206.365 190.419 206.031 190.527C205.697 190.635 205.41 190.855 205.219 191.152C204.992 191.47 204.825 191.826 204.724 192.204C204.669 192.385 204.552 192.54 204.395 192.641C204.237 192.743 204.048 192.784 203.863 192.759L203.001 192.648C202.825 192.616 202.665 192.526 202.546 192.392C202.427 192.258 202.355 192.088 202.341 191.909C202.335 191.462 202.235 191.021 202.048 190.616C201.898 190.274 201.628 190 201.29 189.846C200.951 189.693 200.568 189.671 200.215 189.785C199.87 189.881 199.532 190.004 199.207 190.154C199.042 190.239 198.854 190.267 198.672 190.234C198.49 190.201 198.323 190.108 198.199 189.97C198.015 189.73 197.832 189.508 197.667 189.249C197.584 189.105 197.522 188.95 197.484 188.788L197.796 188.806ZM204.651 181.88C204.121 181.877 203.602 182.032 203.159 182.326C202.717 182.62 202.371 183.04 202.165 183.532C201.96 184.024 201.904 184.567 202.006 185.091C202.107 185.616 202.36 186.098 202.734 186.477C203.107 186.856 203.584 187.115 204.104 187.22C204.623 187.326 205.162 187.273 205.652 187.07C206.142 186.866 206.561 186.521 206.856 186.077C207.151 185.633 207.309 185.111 207.309 184.577C207.309 184.22 207.238 183.866 207.101 183.536C206.965 183.207 206.764 182.908 206.512 182.657C206.259 182.406 205.96 182.208 205.631 182.075C205.302 181.942 204.95 181.876 204.596 181.88H204.651Z" fill="#7D8B97"/>
<path d="M218.068 180.975C218.077 181.08 218.077 181.185 218.068 181.289C218.062 181.417 218.014 181.54 217.931 181.637C217.848 181.734 217.735 181.8 217.61 181.825L217.06 181.973C216.916 182.012 216.763 181.998 216.629 181.934C216.494 181.87 216.387 181.759 216.327 181.622C216.198 181.4 216.07 181.178 215.923 180.975C215.827 180.846 215.705 180.738 215.565 180.658C215.425 180.578 215.271 180.527 215.111 180.51C214.951 180.493 214.789 180.509 214.636 180.557C214.482 180.605 214.341 180.685 214.219 180.791C214.035 180.929 213.863 181.084 213.706 181.252C213.61 181.363 213.479 181.437 213.335 181.461C213.191 181.485 213.043 181.456 212.917 181.382L212.477 181.123C212.324 181.047 212.206 180.914 212.148 180.752C212.09 180.591 212.096 180.412 212.166 180.255C212.256 179.999 212.311 179.732 212.331 179.461C212.352 179.166 212.258 178.874 212.07 178.647C211.882 178.42 211.614 178.275 211.323 178.242C211.036 178.224 210.748 178.224 210.461 178.242C210.318 178.238 210.181 178.181 210.076 178.083C209.972 177.984 209.906 177.85 209.893 177.706C209.867 177.55 209.83 177.396 209.783 177.245C209.738 177.095 209.748 176.934 209.813 176.791C209.877 176.648 209.99 176.534 210.131 176.469C210.406 176.336 210.66 176.161 210.883 175.952C211.082 175.771 211.209 175.523 211.24 175.254C211.27 174.985 211.202 174.714 211.048 174.493C210.899 174.294 210.74 174.103 210.571 173.92C210.494 173.871 210.429 173.805 210.379 173.728C210.329 173.651 210.296 173.564 210.282 173.474C210.268 173.383 210.274 173.29 210.298 173.201C210.323 173.113 210.366 173.03 210.425 172.96L210.645 172.554C210.725 172.419 210.851 172.319 210.999 172.271C211.148 172.224 211.308 172.232 211.451 172.295C211.763 172.427 212.104 172.478 212.441 172.443C212.672 172.437 212.894 172.354 213.073 172.207C213.252 172.06 213.378 171.857 213.431 171.63C213.498 171.327 213.529 171.017 213.522 170.707C213.51 170.565 213.544 170.422 213.621 170.302C213.697 170.182 213.811 170.09 213.944 170.042L214.585 169.894C214.731 169.853 214.887 169.871 215.02 169.943C215.153 170.016 215.254 170.137 215.3 170.282C215.442 170.614 215.662 170.905 215.942 171.132C216.147 171.306 216.407 171.402 216.675 171.402C216.943 171.402 217.203 171.306 217.408 171.132C217.574 171.004 217.727 170.862 217.866 170.707C217.962 170.591 218.094 170.512 218.241 170.481C218.387 170.451 218.54 170.472 218.673 170.541L219.204 170.854C219.327 170.931 219.419 171.05 219.463 171.189C219.507 171.328 219.499 171.478 219.443 171.612C219.326 171.911 219.27 172.232 219.278 172.554C219.279 172.832 219.38 173.101 219.562 173.311C219.743 173.521 219.994 173.659 220.268 173.699H221.037C221.192 173.683 221.347 173.728 221.47 173.824C221.593 173.92 221.675 174.061 221.697 174.216C221.697 174.4 221.789 174.585 221.826 174.77C221.866 174.907 221.853 175.055 221.788 175.182C221.723 175.31 221.612 175.407 221.477 175.453C221.18 175.581 220.911 175.77 220.689 176.007C220.516 176.176 220.403 176.399 220.37 176.64C220.337 176.881 220.385 177.127 220.506 177.337C220.665 177.595 220.856 177.83 221.074 178.039C221.204 178.141 221.291 178.289 221.319 178.453C221.346 178.617 221.311 178.786 221.221 178.925L220.964 179.35C220.929 179.424 220.88 179.49 220.819 179.544C220.758 179.598 220.687 179.639 220.61 179.665C220.533 179.691 220.452 179.701 220.371 179.694C220.29 179.688 220.211 179.665 220.139 179.627C219.746 179.499 219.323 179.499 218.93 179.627C218.73 179.688 218.551 179.803 218.412 179.959C218.273 180.115 218.179 180.307 218.141 180.514C218.122 180.722 218.122 180.933 218.141 181.142L218.068 180.975ZM215.795 173.883C215.531 173.881 215.269 173.931 215.025 174.031C214.78 174.131 214.558 174.279 214.371 174.466C214.183 174.654 214.034 174.876 213.933 175.122C213.831 175.367 213.779 175.631 213.779 175.896C213.775 176.299 213.89 176.694 214.11 177.03C214.329 177.367 214.643 177.63 215.011 177.786C215.379 177.943 215.785 177.986 216.177 177.91C216.569 177.833 216.93 177.641 217.214 177.358C217.498 177.075 217.692 176.713 217.771 176.318C217.851 175.924 217.812 175.514 217.66 175.142C217.508 174.769 217.249 174.451 216.917 174.227C216.585 174.003 216.195 173.883 215.795 173.883Z" fill="#7D8B97"/>
<path d="M56.6206 166.477C61.4088 166.477 65.2905 162.566 65.2905 157.742C65.2905 152.917 61.4088 149.006 56.6206 149.006C51.8323 149.006 47.9506 152.917 47.9506 157.742C47.9506 162.566 51.8323 166.477 56.6206 166.477Z" fill="white"/>
<path d="M56.6569 147.399V158.074L65.9867 151.296C65.9867 151.296 61.6792 146.568 56.6569 147.399Z" fill="#FFBA00"/>
<path d="M117.108 187.44L105.616 190.69L109.593 198.428L117.75 196.12L117.108 187.44Z" fill="#BAA38F"/>
<path d="M98.4488 171.261C98.3452 171.925 98.4083 172.604 98.6321 173.237C99.2873 176.213 100.454 179.05 102.078 181.622C104.626 185.316 108.603 187.624 112.453 189.859C112.123 189.582 112.178 187.532 112.123 187.07L111.848 184.337C111.613 182.893 111.055 181.523 110.216 180.329C108.537 177.545 106.225 175.203 103.471 173.496C101.91 172.515 100.219 171.763 98.4488 171.261Z" fill="#FFBA00"/>
<path d="M98.4488 171.261C98.3452 171.925 98.4083 172.604 98.6321 173.237C99.2873 176.213 100.454 179.05 102.078 181.622C104.626 185.316 108.603 187.624 112.453 189.859C112.123 189.582 112.178 187.532 112.123 187.07L111.848 184.337C111.613 182.893 111.055 181.523 110.216 180.329C108.537 177.545 106.225 175.203 103.471 173.496C101.91 172.515 100.219 171.763 98.4488 171.261Z" fill="#1EA793"/>
<path d="M114.285 176.949C114.677 174.507 114.745 172.023 114.487 169.562C114.196 167.058 112.93 164.773 110.968 163.209L108.09 173.403C107.434 175.337 107.081 177.362 107.045 179.406C107.197 181.418 107.765 183.375 108.712 185.153C109.659 186.931 110.964 188.49 112.544 189.73C113.461 188.271 113.259 185.648 113.461 183.931L114.285 176.949Z" fill="#FFBA00"/>
<path d="M114.285 176.949C114.677 174.507 114.745 172.023 114.487 169.562C114.196 167.058 112.93 164.773 110.968 163.209L108.09 173.403C107.434 175.337 107.081 177.362 107.045 179.406C107.197 181.418 107.765 183.375 108.712 185.153C109.659 186.931 110.964 188.49 112.544 189.73C113.461 188.271 113.259 185.648 113.461 183.931L114.285 176.949Z" fill="#00A8FF"/>
<path d="M116.755 184.484L104.422 187.984C103.389 188.277 102.787 189.354 103.076 190.39C103.366 191.426 104.438 192.028 105.471 191.735L117.803 188.235C118.836 187.942 119.439 186.864 119.149 185.829C118.86 184.793 117.788 184.191 116.755 184.484Z" fill="#967F6D"/>
</g>
<defs>
<linearGradient id="paint0_linear_1_1977" x1="179.301" y1="58.1765" x2="219.681" y2="58.1765" gradientUnits="userSpaceOnUse">
<stop offset="0.01"/>
<stop offset="0.08" stop-opacity="0.69"/>
<stop offset="0.21" stop-opacity="0.32"/>
<stop offset="1" stop-opacity="0"/>
</linearGradient>
<linearGradient id="paint1_linear_1_1977" x1="-4382.6" y1="5315.96" x2="85.9319" y2="6758.59" gradientUnits="userSpaceOnUse">
<stop offset="0.01"/>
<stop offset="0.08" stop-opacity="0.69"/>
<stop offset="0.21" stop-opacity="0.32"/>
<stop offset="1" stop-opacity="0"/>
</linearGradient>
<linearGradient id="paint2_linear_1_1977" x1="-1893.01" y1="50.903" x2="-1440.48" y2="1022.2" gradientUnits="userSpaceOnUse">
<stop offset="0.01"/>
<stop offset="0.08" stop-opacity="0.69"/>
<stop offset="0.21" stop-opacity="0.32"/>
<stop offset="1" stop-opacity="0"/>
</linearGradient>
<linearGradient id="paint3_linear_1_1977" x1="-2250.3" y1="4278.74" x2="-1814.99" y2="4309.65" gradientUnits="userSpaceOnUse">
<stop offset="0.01"/>
<stop offset="0.08" stop-opacity="0.69"/>
<stop offset="0.21" stop-opacity="0.32"/>
<stop offset="1" stop-opacity="0"/>
</linearGradient>
<clipPath id="clip0_1_1977">
<rect width="275" height="220" fill="white"/>
</clipPath>
</defs>
</svg>
