<svg width="51" height="51" viewBox="0 0 51 51" fill="none" xmlns="http://www.w3.org/2000/svg">
<g clip-path="url(#clip0_190_317)">
<path fill-rule="evenodd" clip-rule="evenodd" d="M27.6618 40.2353C28.9956 40.2353 30.2749 40.7652 31.2181 41.7084C32.1613 42.6516 32.6912 43.9308 32.6912 45.2647C32.6912 46.5986 32.1613 47.8778 31.2181 48.821C30.2749 49.7642 28.9956 50.2941 27.6618 50.2941C26.3279 50.2941 25.0486 49.7642 24.1054 48.821C23.1622 47.8778 22.6324 46.5986 22.6324 45.2647C22.6324 43.9308 23.1622 42.6516 24.1054 41.7084C25.0486 40.7652 26.3279 40.2353 27.6618 40.2353ZM11.9222 32.6912C13.5896 32.6912 15.1886 33.3535 16.3676 34.5325C17.5466 35.7115 18.209 37.3106 18.209 38.9779C18.209 40.6453 17.5466 42.2444 16.3676 43.4234C15.1886 44.6024 13.5896 45.2647 11.9222 45.2647C10.2549 45.2647 8.6558 44.6024 7.47681 43.4234C6.29781 42.2444 5.63546 40.6453 5.63546 38.9779C5.63546 37.3106 6.29781 35.7115 7.47681 34.5325C8.6558 33.3535 10.2549 32.6912 11.9222 32.6912ZM41.0375 33.9485C42.3714 33.9485 43.6506 34.4784 44.5938 35.4216C45.537 36.3648 46.0669 37.6441 46.0669 38.9779C46.0669 40.3118 45.537 41.5911 44.5938 42.5343C43.6506 43.4775 42.3714 44.0074 41.0375 44.0074C39.7036 44.0074 38.4244 43.4775 37.4812 42.5343C36.538 41.5911 36.0081 40.3118 36.0081 38.9779C36.0081 37.6441 36.538 36.3648 37.4812 35.4216C38.4244 34.4784 39.7036 33.9485 41.0375 33.9485ZM46.5221 23.4345C47.5225 23.4345 48.4819 23.832 49.1893 24.5394C49.8967 25.2468 50.2941 26.2062 50.2941 27.2066C50.2941 28.207 49.8967 29.1665 49.1893 29.8739C48.4819 30.5813 47.5225 30.9787 46.5221 30.9787C45.5216 30.9787 44.5622 30.5813 43.8548 29.8739C43.1474 29.1665 42.75 28.207 42.75 27.2066C42.75 26.2062 43.1474 25.2468 43.8548 24.5394C44.5622 23.832 45.5216 23.4345 46.5221 23.4345ZM6.28676 15.0882C7.95412 15.0882 9.55318 15.7506 10.7322 16.9296C11.9112 18.1086 12.5735 19.7076 12.5735 21.375C12.5735 23.0424 11.9112 24.6414 10.7322 25.8204C9.55318 26.9994 7.95412 27.6618 6.28676 27.6618C4.61941 27.6618 3.02035 26.9994 1.84135 25.8204C0.662354 24.6414 0 23.0424 0 21.375C0 19.7076 0.662354 18.1086 1.84135 16.9296C3.02035 15.7506 4.61941 15.0882 6.28676 15.0882ZM44.7266 13.0941C45.3935 13.0941 46.0331 13.359 46.5047 13.8306C46.9763 14.3022 47.2413 14.9418 47.2413 15.6088C47.2413 16.2757 46.9763 16.9153 46.5047 17.3869C46.0331 17.8585 45.3935 18.1235 44.7266 18.1235C44.0596 18.1235 43.42 17.8585 42.9484 17.3869C42.4768 16.9153 42.2119 16.2757 42.2119 15.6088C42.2119 14.9418 42.4768 14.3022 42.9484 13.8306C43.42 13.359 44.0596 13.0941 44.7266 13.0941ZM20.1176 0C22.1185 0 24.0373 0.794824 25.4521 2.20962C26.8669 3.62442 27.6618 5.54329 27.6618 7.54412C27.6618 9.54494 26.8669 11.4638 25.4521 12.8786C24.0373 14.2934 22.1185 15.0882 20.1176 15.0882C18.1168 15.0882 16.1979 14.2934 14.7832 12.8786C13.3684 11.4638 12.5735 9.54494 12.5735 7.54412C12.5735 5.54329 13.3684 3.62442 14.7832 2.20962C16.1979 0.794824 18.1168 0 20.1176 0V0ZM38.9779 7.54412C39.3114 7.54412 39.6312 7.67659 39.867 7.91239C40.1028 8.14819 40.2353 8.468 40.2353 8.80147C40.2353 9.13494 40.1028 9.45475 39.867 9.69055C39.6312 9.92635 39.3114 10.0588 38.9779 10.0588C38.6445 10.0588 38.3247 9.92635 38.0889 9.69055C37.8531 9.45475 37.7206 9.13494 37.7206 8.80147C37.7206 8.468 37.8531 8.14819 38.0889 7.91239C38.3247 7.67659 38.6445 7.54412 38.9779 7.54412Z" fill="#00A8FF"/>
</g>
<defs>
<clipPath id="clip0_190_317">
<rect width="50.2941" height="50.2941" fill="white"/>
</clipPath>
</defs>
</svg>
